<svg xmlns="http://www.w3.org/2000/svg" xmlns:xlink="http://www.w3.org/1999/xlink" width="1020" height="667.88"><rect width="1020" height="667.88" rx="5" ry="5" class="a"/><svg y="0%" x="0%"><circle cx="20" cy="20" r="6" fill="#ff5f58"/><circle cx="40" cy="20" r="6" fill="#ffbd2e"/><circle cx="60" cy="20" r="6" fill="#18c132"/></svg><svg height="607.88" viewBox="0 0 98 60.788" width="980" x="15" xmlns="http://www.w3.org/2000/svg" xmlns:xlink="http://www.w3.org/1999/xlink" y="50"><style>@keyframes t{0%{transform:translateX(0)}.96%{transform:translateX(-98px)}1.41%{transform:translateX(-196px)}1.87%{transform:translateX(-392px)}1.88%{transform:translateX(-490px)}7.5%{transform:translateX(-588px)}8.77%{transform:translateX(-686px)}9.65%{transform:translateX(-784px)}10.27%{transform:translateX(-882px)}11.23%{transform:translateX(-980px)}11.52%{transform:translateX(-1078px)}12.23%{transform:translateX(-1176px)}13.51%{transform:translateX(-1274px)}14.25%{transform:translateX(-1372px)}14.95%{transform:translateX(-1470px)}15.56%{transform:translateX(-1568px)}16%{transform:translateX(-1666px)}17.27%{transform:translateX(-1764px)}17.84%{transform:translateX(-1862px)}19.63%{transform:translateX(-1960px)}20.41%{transform:translateX(-2058px)}22.02%{transform:translateX(-2156px)}22.57%{transform:translateX(-2254px)}23.96%{transform:translateX(-2352px)}25.24%{transform:translateX(-2450px)}28.14%{transform:translateX(-2548px)}29.28%{transform:translateX(-2646px)}29.89%{transform:translateX(-2744px)}30.9%{transform:translateX(-2842px)}31.65%{transform:translateX(-2940px)}32.88%{transform:translateX(-3038px)}33.53%{transform:translateX(-3136px)}34.02%{transform:translateX(-3234px)}34.59%{transform:translateX(-3332px)}35.6%{transform:translateX(-3430px)}35.92%{transform:translateX(-3528px)}36.57%{transform:translateX(-3626px)}37.01%{transform:translateX(-3724px)}37.56%{transform:translateX(-3822px)}38.5%{transform:translateX(-3920px)}39.81%{transform:translateX(-4018px)}41.26%{transform:translateX(-4116px)}42.49%{transform:translateX(-4214px)}43.71%{transform:translateX(-4312px)}44.69%{transform:translateX(-4410px)}46.12%{transform:translateX(-4508px)}47.52%{transform:translateX(-4606px)}48.48%{transform:translateX(-4704px)}49.89%{transform:translateX(-4802px)}50.67%{transform:translateX(-4900px)}51.34%{transform:translateX(-4998px)}51.99%{transform:translateX(-5096px)}52.28%{transform:translateX(-5194px)}53.41%{transform:translateX(-5292px)}54.78%{transform:translateX(-5390px)}55.85%{transform:translateX(-5488px)}57.96%{transform:translateX(-5586px)}57.99%{transform:translateX(-5684px)}58%{transform:translateX(-5782px)}60.5%{transform:translateX(-5880px)}60.51%{transform:translateX(-5978px)}61.09%{transform:translateX(-6076px)}61.69%{transform:translateX(-6174px)}62.27%{transform:translateX(-6272px)}62.86%{transform:translateX(-6370px)}63.44%{transform:translateX(-6468px)}64.04%{transform:translateX(-6566px)}64.63%{transform:translateX(-6664px)}65.21%{transform:translateX(-6762px)}65.8%{transform:translateX(-6860px)}66.4%{transform:translateX(-6958px)}66.98%{transform:translateX(-7056px)}67.58%{transform:translateX(-7154px)}68.16%{transform:translateX(-7252px)}68.76%{transform:translateX(-7350px)}69.35%{transform:translateX(-7448px)}69.94%{transform:translateX(-7546px)}70.54%{transform:translateX(-7644px)}71.12%{transform:translateX(-7742px)}71.72%{transform:translateX(-7840px)}72.3%{transform:translateX(-7938px)}72.88%{transform:translateX(-8036px)}73.45%{transform:translateX(-8134px)}74.04%{transform:translateX(-8232px)}74.63%{transform:translateX(-8330px)}75.23%{transform:translateX(-8428px)}75.81%{transform:translateX(-8526px)}76.38%{transform:translateX(-8624px)}76.97%{transform:translateX(-8722px)}77.56%{transform:translateX(-8820px)}78.14%{transform:translateX(-8918px)}78.15%{transform:translateX(-9114px)}78.23%{transform:translateX(-9506px)}85.5%{transform:translateX(-9604px)}87.11%{transform:translateX(-9702px)}87.42%{transform:translateX(-9800px)}87.66%{transform:translateX(-9996px)}88.12%{transform:translateX(-10290px)}to{transform:translateX(-10388px)}}.a{fill:#282d35}.f{fill:#dbab79;font-weight:700}.f,.g,.h{white-space:pre}.g{fill:#b9c0cb;font-weight:700}.h{fill:#66c2cd}.h,.i{font-weight:700}.i,.j,.k,.l,.m,.n{fill:#a8cc8c;white-space:pre}.k,.l,.m,.n{fill:#b9c0cb}.l,.m,.n{fill:#3a3a3a}.m,.n{fill:#d290e4}.n{fill:#66c2cd}.o{fill:#f92672}.o,.q,.v{white-space:pre}.q{fill:#d290e4;font-weight:700}.v{fill:#b9c0cb;text-decoration:underline}</style><g font-family="Monaco,Consolas,Menlo,'Bitstream Vera Sans Mono','Powerline Symbols',monospace" font-size="1.67"><defs><symbol id="1"><text y="1.67" class="f">hploeg</text><text x="7.014" y="1.67" class="g">in</text><text x="10.02" y="1.67" class="h">excludarr</text></symbol><symbol id="2"><text y="1.67" class="i">➜</text></symbol><symbol id="3"><text y="1.67" class="i">➜</text><text x="2.004" y="1.67" class="j">excludarr</text></symbol><symbol id="4"><text y="1.67" class="i">➜</text><text x="2.004" y="1.67" class="j">excludarr</text><text x="12.024" y="1.67" class="k">radarr</text></symbol><symbol id="5"><text y="1.67" class="i">➜</text><text x="2.004" y="1.67" class="j">excludarr</text><text x="12.024" y="1.67" class="k">radarr</text><text x="19.038" y="1.67" class="k">exclude</text></symbol><symbol id="6"><text y="1.67" class="i">➜</text><text x="2.004" y="1.67" class="j">excludarr</text><text x="12.024" y="1.67" class="k">radarr</text><text x="19.038" y="1.67" class="k">exclude</text><text x="27.054" y="1.67" class="g">-a</text></symbol><symbol id="7"><text y="1.67" class="i">➜</text><text x="2.004" y="1.67" class="j">excludarr</text><text x="12.024" y="1.67" class="k">radarr</text><text x="19.038" y="1.67" class="k">exclude</text><text x="27.054" y="1.67" class="g">-a</text><text x="30.06" y="1.67" class="k">delete</text></symbol><symbol id="8"><text y="1.67" class="i">➜</text><text x="2.004" y="1.67" class="j">excludarr</text><text x="12.024" y="1.67" class="k">radarr</text><text x="19.038" y="1.67" class="k">exclude</text><text x="27.054" y="1.67" class="g">-a</text><text x="30.06" y="1.67" class="k">delete</text><text x="37.074" y="1.67" class="g">-d</text></symbol><symbol id="9"><text y="1.67" class="i">➜</text><text x="2.004" y="1.67" class="j">excludarr</text><text x="12.024" y="1.67" class="k">radarr</text><text x="19.038" y="1.67" class="k">exclude</text><text x="27.054" y="1.67" class="g">-a</text><text x="30.06" y="1.67" class="k">delete</text><text x="37.074" y="1.67" class="g">-d</text><text x="40.08" y="1.67" class="g">-e</text></symbol><symbol id="10"><text y="1.67" class="i">➜</text><text x="2.004" y="1.67" class="j">excludarr</text><text x="12.024" y="1.67" class="k">radarr</text><text x="19.038" y="1.67" class="k">exclude</text><text x="27.054" y="1.67" class="g">-a</text><text x="30.06" y="1.67" class="k">delete</text><text x="37.074" y="1.67" class="g">-d</text><text x="40.08" y="1.67" class="g">-e</text><text x="43.086" y="1.67" class="g">--progress</text></symbol><symbol id="11"><text y="1.67" class="k">Working...</text><text x="11.022" y="1.67" class="l">━━━━━━━━━━━━━━━━━━━━━━━━━━━━━━━━━━━━━━━━</text><text x="54.108" y="1.67" class="m">0%</text><text x="57.114" y="1.67" class="n">-:--:--</text></symbol><symbol id="12"><text y="1.67" class="k">Working...</text><text x="11.022" y="1.67" class="o">━━━━╸</text><text x="16.032" y="1.67" class="l">━━━━━━━━━━━━━━━━━━━━━━━━━━━━━━━━━━━</text><text x="53.106" y="1.67" class="m">12%</text><text x="57.114" y="1.67" class="n">0:00:02</text></symbol><symbol id="13"><text y="1.67" class="k">Working...</text><text x="11.022" y="1.67" class="o">━━━━━━━━━━━</text><text x="22.044" y="1.67" class="l">╺━━━━━━━━━━━━━━━━━━━━━━━━━━━━</text><text x="53.106" y="1.67" class="m">28%</text><text x="57.114" y="1.67" class="n">0:00:02</text></symbol><symbol id="14"><text y="1.67" class="k">Working...</text><text x="11.022" y="1.67" class="o">━━━━━━━━━━━━━━━━━━━━━━━━</text><text x="35.07" y="1.67" class="l">╺━━━━━━━━━━━━━━━</text><text x="53.106" y="1.67" class="m">60%</text><text x="57.114" y="1.67" class="n">0:00:01</text></symbol><symbol id="15"><text y="1.67" class="k">Working...</text><text x="11.022" y="1.67" class="o">━━━━━━━━━━━━━━━━━━━━━━━━━━━</text><text x="38.076" y="1.67" class="l">╺━━━━━━━━━━━━</text><text x="53.106" y="1.67" class="m">68%</text><text x="57.114" y="1.67" class="n">0:00:01</text></symbol><symbol id="16"><text y="1.67" class="k">Working...</text><text x="11.022" y="1.67" class="o">━━━━━━━━━━━━━━━━━━━━━━━━━━━━━━</text><text x="41.082" y="1.67" class="l">╺━━━━━━━━━</text><text x="53.106" y="1.67" class="m">76%</text><text x="57.114" y="1.67" class="n">0:00:01</text></symbol><symbol id="17"><text y="1.67" class="k">Working...</text><text x="11.022" y="1.67" class="o">━━━━━━━━━━━━━━━━━━━━━━━━━━━━━━━━━╸</text><text x="45.09" y="1.67" class="l">━━━━━━</text><text x="53.106" y="1.67" class="m">84%</text><text x="57.114" y="1.67" class="n">0:00:01</text></symbol><symbol id="18"><text y="1.67" class="k">Working...</text><text x="11.022" y="1.67" style="white-space:pre" fill="#729c1f">━━━━━━━━━━━━━━━━━━━━━━━━━━━━━━━━━━━━━━━━</text><text x="52.104" y="1.67" class="m">100%</text><text x="57.114" y="1.67" class="n">0:00:00</text></symbol><symbol id="19"><text x="14.028" y="1.67" class="k">╷</text><text x="56.112" y="1.67" class="k">╷</text><text x="73.146" y="1.67" class="k">╷</text></symbol><symbol id="20"><text x="1.002" y="1.67" class="g">Release</text><text x="9.018" y="1.67" class="g">Date</text><text x="14.028" y="1.67" class="k">│</text><text x="16.032" y="1.67" class="g">Title</text><text x="56.112" y="1.67" class="k">│</text><text x="58.116" y="1.67" class="g">Used</text><text x="63.126" y="1.67" class="g">Diskspace</text><text x="73.146" y="1.67" class="k">│</text><text x="75.15" y="1.67" class="g">Streaming</text><text x="85.17" y="1.67" class="g">Providers</text></symbol><symbol id="21"><text y="1.67" class="k">╶─────────────┼─────────────────────────────────────────┼────────────────┼────────────────────╴</text></symbol><symbol id="22"><text x="1.002" y="1.67" class="k">2007-05-01</text><text x="14.028" y="1.67" class="k">│</text><text x="16.032" y="1.67" class="k">Spider-Man</text><text x="27.054" y="1.67" class="k">3</text><text x="56.112" y="1.67" class="k">│</text><text x="58.116" y="1.67" class="k">0.00GB</text><text x="73.146" y="1.67" class="k">│</text><text x="75.15" y="1.67" class="k">Videoland</text></symbol><symbol id="23"><text x="1.002" y="1.67" class="k">2012-06-27</text><text x="14.028" y="1.67" class="k">│</text><text x="16.032" y="1.67" class="k">The</text><text x="20.04" y="1.67" class="k">Amazing</text><text x="28.056" y="1.67" class="k">Spider-Man</text><text x="56.112" y="1.67" class="k">│</text><text x="58.116" y="1.67" class="k">4.66GB</text><text x="73.146" y="1.67" class="k">│</text><text x="75.15" y="1.67" class="k">Netflix</text></symbol><symbol id="24"><text x="1.002" y="1.67" class="k">2021-11-04</text><text x="14.028" y="1.67" class="k">│</text><text x="16.032" y="1.67" class="k">Red</text><text x="20.04" y="1.67" class="k">Notice</text><text x="56.112" y="1.67" class="k">│</text><text x="58.116" y="1.67" class="k">0.00GB</text><text x="73.146" y="1.67" class="k">│</text><text x="75.15" y="1.67" class="k">Netflix</text></symbol><symbol id="25"><text x="1.002" y="1.67" class="k">2021-11-24</text><text x="14.028" y="1.67" class="k">│</text><text x="16.032" y="1.67" class="k">The</text><text x="20.04" y="1.67" class="k">Unforgivable</text><text x="56.112" y="1.67" class="k">│</text><text x="58.116" y="1.67" class="k">0.00GB</text><text x="73.146" y="1.67" class="k">│</text><text x="75.15" y="1.67" class="k">Netflix</text></symbol><symbol id="26"><text x="1.002" y="1.67" class="k">2021-10-29</text><text x="14.028" y="1.67" class="k">│</text><text x="16.032" y="1.67" class="k">Army</text><text x="21.042" y="1.67" class="k">of</text><text x="24.048" y="1.67" class="k">Thieves</text><text x="56.112" y="1.67" class="k">│</text><text x="58.116" y="1.67" class="k">7.45GB</text><text x="73.146" y="1.67" class="k">│</text><text x="75.15" y="1.67" class="k">Netflix</text></symbol><symbol id="27"><text x="1.002" y="1.67" class="k">2021-05-14</text><text x="14.028" y="1.67" class="k">│</text><text x="16.032" y="1.67" class="k">Army</text><text x="21.042" y="1.67" class="k">of</text><text x="24.048" y="1.67" class="k">the</text><text x="28.056" y="1.67" class="k">Dead</text><text x="56.112" y="1.67" class="k">│</text><text x="58.116" y="1.67" class="k">0.00GB</text><text x="73.146" y="1.67" class="k">│</text><text x="75.15" y="1.67" class="k">Netflix</text></symbol><symbol id="28"><text x="1.002" y="1.67" class="k">2021-11-05</text><text x="14.028" y="1.67" class="k">│</text><text x="16.032" y="1.67" class="k">Love</text><text x="21.042" y="1.67" class="k">Hard</text><text x="56.112" y="1.67" class="k">│</text><text x="58.116" y="1.67" class="k">0.00GB</text><text x="73.146" y="1.67" class="k">│</text><text x="75.15" y="1.67" class="k">Netflix</text></symbol><symbol id="29"><text x="1.002" y="1.67" class="k">1999-03-30</text><text x="14.028" y="1.67" class="k">│</text><text x="16.032" y="1.67" class="k">The</text><text x="20.04" y="1.67" class="k">Matrix</text><text x="56.112" y="1.67" class="k">│</text><text x="58.116" y="1.67" class="k">0.00GB</text><text x="73.146" y="1.67" class="k">│</text><text x="75.15" y="1.67" class="k">Netflix</text></symbol><symbol id="30"><text x="1.002" y="1.67" class="k">2018-09-28</text><text x="14.028" y="1.67" class="k">│</text><text x="16.032" y="1.67" class="k">Venom</text><text x="56.112" y="1.67" class="k">│</text><text x="58.116" y="1.67" class="k">0.00GB</text><text x="73.146" y="1.67" class="k">│</text><text x="75.15" y="1.67" class="k">Netflix,</text><text x="84.168" y="1.67" class="k">Videoland</text></symbol><symbol id="31"><text x="1.002" y="1.67" class="k">2016-11-16</text><text x="14.028" y="1.67" class="k">│</text><text x="16.032" y="1.67" class="k">Fantastic</text><text x="26.052" y="1.67" class="k">Beasts</text><text x="33.066" y="1.67" class="k">and</text><text x="37.074" y="1.67" class="k">Where</text><text x="43.086" y="1.67" class="k">to</text><text x="46.092" y="1.67" class="k">Find</text><text x="51.102" y="1.67" class="k">Them</text><text x="56.112" y="1.67" class="k">│</text><text x="58.116" y="1.67" class="k">0.00GB</text><text x="73.146" y="1.67" class="k">│</text><text x="75.15" y="1.67" class="k">Netflix</text></symbol><symbol id="32"><text x="14.028" y="1.67" class="k">│</text><text x="35.07" y="1.67" class="g">Total</text><text x="41.082" y="1.67" class="g">Used</text><text x="46.092" y="1.67" class="g">Diskspace</text><text x="56.112" y="1.67" class="k">│</text><text x="58.116" y="1.67" class="g">12.11GB</text><text x="73.146" y="1.67" class="k">│</text></symbol><symbol id="33"><text x="14.028" y="1.67" class="k">╵</text><text x="56.112" y="1.67" class="k">╵</text><text x="73.146" y="1.67" class="k">╵</text></symbol><symbol id="34"><text y="1.67" class="k">Are</text><text x="4.008" y="1.67" class="k">you</text><text x="8.016" y="1.67" class="k">sure</text><text x="13.026" y="1.67" class="k">you</text><text x="17.034" y="1.67" class="k">want</text><text x="22.044" y="1.67" class="k">to</text><text x="25.05" y="1.67" class="k">delete</text><text x="32.064" y="1.67" class="k">the</text><text x="36.072" y="1.67" class="k">listed</text><text x="43.086" y="1.67" class="k">movies?</text><text x="51.102" y="1.67" class="q">[y/n]</text><text x="57.114" y="1.67" class="h">(n)</text><text x="60.12" y="1.67" class="k">:</text><text x="62.124" y="1.67" class="k">y</text></symbol><symbol id="35"><text y="1.67" class="k">Succesfully</text><text x="12.024" y="1.67" class="k">deleted</text><text x="20.04" y="1.67" class="k">the</text><text x="24.048" y="1.67" class="k">movies</text><text x="31.062" y="1.67" class="k">from</text><text x="36.072" y="1.67" class="k">Radarr!</text></symbol><symbol id="36"><text y="1.67" class="f">hploeg</text><text x="7.014" y="1.67" class="g">in</text><text x="10.02" y="1.67" class="h">excludarr</text><text x="20.04" y="1.67" class="g">took</text><text x="25.05" y="1.67" class="f">5s</text></symbol><symbol id="a"><path fill="transparent" d="M0 0h98v28H0z"/></symbol><symbol id="b"><path fill="#6f7683" d="M0 0h1.102v2.171H0z"/></symbol></defs><path class="a" d="M0 0h98v60.788H0z"/><g style="animation-duration:17.786964s;animation-iteration-count:infinite;animation-name:t;animation-timing-function:steps(1,end)"><svg width="10486"><svg><use xlink:href="#a"/><use xlink:href="#b" x="-.004"/></svg><svg x="98"><use xlink:href="#a"/><use xlink:href="#b" x="-.004"/></svg><svg x="196"><use xlink:href="#a"/><use xlink:href="#b" x="-.004"/></svg><svg x="294"><use xlink:href="#a"/><use xlink:href="#b" x="1.996" y="2.146"/><use xlink:href="#1"/><use xlink:href="#2" y="2.171"/></svg><svg x="392"><use xlink:href="#a"/><use xlink:href="#b" x="1.996" y="2.146"/><use xlink:href="#1"/><use xlink:href="#2" y="2.171"/></svg><svg x="490"><use xlink:href="#a"/><use xlink:href="#b" x="1.996" y="2.146"/><use xlink:href="#1"/><use xlink:href="#2" y="2.171"/></svg><svg x="588"><use xlink:href="#a"/><use xlink:href="#b" x="2.996" y="2.146"/><use xlink:href="#1"/><text y="3.841" class="i">➜</text><text x="2.004" y="3.841" class="v">e</text></svg><svg x="686"><use xlink:href="#a"/><use xlink:href="#b" x="3.996" y="2.146"/><use xlink:href="#1"/><text y="3.841" class="i">➜</text><text x="2.004" y="3.841" class="j">ex</text></svg><svg x="784"><use xlink:href="#a"/><use xlink:href="#b" x="4.996" y="2.146"/><use xlink:href="#1"/><text y="3.841" class="i">➜</text><text x="2.004" y="3.841" class="v">exc</text></svg><svg x="882"><use xlink:href="#a"/><use xlink:href="#b" x="5.996" y="2.146"/><use xlink:href="#1"/><text y="3.841" class="i">➜</text><text x="2.004" y="3.841" class="v">excl</text></svg><svg x="980"><use xlink:href="#a"/><use xlink:href="#b" x="6.996" y="2.146"/><use xlink:href="#1"/><text y="3.841" class="i">➜</text><text x="2.004" y="3.841" class="v">exclu</text></svg><svg x="1078"><use xlink:href="#a"/><use xlink:href="#b" x="7.996" y="2.146"/><use xlink:href="#1"/><text y="3.841" class="i">➜</text><text x="2.004" y="3.841" class="v">exclud</text></svg><svg x="1176"><use xlink:href="#a"/><use xlink:href="#b" x="8.996" y="2.146"/><use xlink:href="#1"/><text y="3.841" class="i">➜</text><text x="2.004" y="3.841" class="v">excluda</text></svg><svg x="1274"><use xlink:href="#a"/><use xlink:href="#b" x="9.996" y="2.146"/><use xlink:href="#1"/><text y="3.841" class="i">➜</text><text x="2.004" y="3.841" class="v">excludar</text></svg><svg x="1372"><use xlink:href="#a"/><use xlink:href="#b" x="10.996" y="2.146"/><use xlink:href="#1"/><use xlink:href="#3" y="2.171"/></svg><svg x="1470"><use xlink:href="#a"/><use xlink:href="#b" x="11.996" y="2.146"/><use xlink:href="#1"/><use xlink:href="#3" y="2.171"/></svg><svg x="1568"><use xlink:href="#a"/><use xlink:href="#b" x="12.996" y="2.146"/><use xlink:href="#1"/><text y="3.841" class="i">➜</text><text x="2.004" y="3.841" class="j">excludarr</text><text x="12.024" y="3.841" class="v">r</text></svg><svg x="1666"><use xlink:href="#a"/><use xlink:href="#b" x="13.996" y="2.146"/><use xlink:href="#1"/><text y="3.841" class="i">➜</text><text x="2.004" y="3.841" class="j">excludarr</text><text x="12.024" y="3.841" class="k">ra</text></svg><svg x="1764"><use xlink:href="#a"/><use xlink:href="#b" x="14.996" y="2.146"/><use xlink:href="#1"/><text y="3.841" class="i">➜</text><text x="2.004" y="3.841" class="j">excludarr</text><text x="12.024" y="3.841" class="k">rad</text></svg><svg x="1862"><use xlink:href="#a"/><use xlink:href="#b" x="15.996" y="2.146"/><use xlink:href="#1"/><text y="3.841" class="i">➜</text><text x="2.004" y="3.841" class="j">excludarr</text><text x="12.024" y="3.841" class="k">rada</text></svg><svg x="1960"><use xlink:href="#a"/><use xlink:href="#b" x="16.996" y="2.146"/><use xlink:href="#1"/><text y="3.841" class="i">➜</text><text x="2.004" y="3.841" class="j">excludarr</text><text x="12.024" y="3.841" class="k">radar</text></svg><svg x="2058"><use xlink:href="#a"/><use xlink:href="#b" x="17.996" y="2.146"/><use xlink:href="#1"/><use xlink:href="#4" y="2.171"/></svg><svg x="2156"><use xlink:href="#a"/><use xlink:href="#b" x="18.996" y="2.146"/><use xlink:href="#1"/><use xlink:href="#4" y="2.171"/></svg><svg x="2254"><use xlink:href="#a"/><use xlink:href="#b" x="19.996" y="2.146"/><use xlink:href="#1"/><text y="3.841" class="i">➜</text><text x="2.004" y="3.841" class="j">excludarr</text><text x="12.024" y="3.841" class="k">radarr</text><text x="19.038" y="3.841" class="v">e</text></svg><svg x="2352"><use xlink:href="#a"/><use xlink:href="#b" x="20.996" y="2.146"/><use xlink:href="#1"/><text y="3.841" class="i">➜</text><text x="2.004" y="3.841" class="j">excludarr</text><text x="12.024" y="3.841" class="k">radarr</text><text x="19.038" y="3.841" class="v">ex</text></svg><svg x="2450"><use xlink:href="#a"/><use xlink:href="#b" x="21.996" y="2.146"/><use xlink:href="#1"/><text y="3.841" class="i">➜</text><text x="2.004" y="3.841" class="j">excludarr</text><text x="12.024" y="3.841" class="k">radarr</text><text x="19.038" y="3.841" class="v">exc</text></svg><svg x="2548"><use xlink:href="#a"/><use xlink:href="#b" x="22.996" y="2.146"/><use xlink:href="#1"/><text y="3.841" class="i">➜</text><text x="2.004" y="3.841" class="j">excludarr</text><text x="12.024" y="3.841" class="k">radarr</text><text x="19.038" y="3.841" class="v">excl</text></svg><svg x="2646"><use xlink:href="#a"/><use xlink:href="#b" x="23.996" y="2.146"/><use xlink:href="#1"/><text y="3.841" class="i">➜</text><text x="2.004" y="3.841" class="j">excludarr</text><text x="12.024" y="3.841" class="k">radarr</text><text x="19.038" y="3.841" class="v">exclu</text></svg><svg x="2744"><use xlink:href="#a"/><use xlink:href="#b" x="24.996" y="2.146"/><use xlink:href="#1"/><text y="3.841" class="i">➜</text><text x="2.004" y="3.841" class="j">excludarr</text><text x="12.024" y="3.841" class="k">radarr</text><text x="19.038" y="3.841" class="v">exclud</text></svg><svg x="2842"><use xlink:href="#a"/><use xlink:href="#b" x="25.996" y="2.146"/><use xlink:href="#1"/><use xlink:href="#5" y="2.171"/></svg><svg x="2940"><use xlink:href="#a"/><use xlink:href="#b" x="26.996" y="2.146"/><use xlink:href="#1"/><use xlink:href="#5" y="2.171"/></svg><svg x="3038"><use xlink:href="#a"/><use xlink:href="#b" x="27.996" y="2.146"/><use xlink:href="#1"/><text y="3.841" class="i">➜</text><text x="2.004" y="3.841" class="j">excludarr</text><text x="12.024" y="3.841" class="k">radarr</text><text x="19.038" y="3.841" class="k">exclude</text><text x="27.054" y="3.841" class="g">-</text></svg><svg x="3136"><use xlink:href="#a"/><use xlink:href="#b" x="28.996" y="2.146"/><use xlink:href="#1"/><use xlink:href="#6" y="2.171"/></svg><svg x="3234"><use xlink:href="#a"/><use xlink:href="#b" x="29.996" y="2.146"/><use xlink:href="#1"/><use xlink:href="#6" y="2.171"/></svg><svg x="3332"><use xlink:href="#a"/><use xlink:href="#b" x="30.996" y="2.146"/><use xlink:href="#1"/><text y="3.841" class="i">➜</text><text x="2.004" y="3.841" class="j">excludarr</text><text x="12.024" y="3.841" class="k">radarr</text><text x="19.038" y="3.841" class="k">exclude</text><text x="27.054" y="3.841" class="g">-a</text><text x="30.06" y="3.841" class="v">d</text></svg><svg x="3430"><use xlink:href="#a"/><use xlink:href="#b" x="31.996" y="2.146"/><use xlink:href="#1"/><text y="3.841" class="i">➜</text><text x="2.004" y="3.841" class="j">excludarr</text><text x="12.024" y="3.841" class="k">radarr</text><text x="19.038" y="3.841" class="k">exclude</text><text x="27.054" y="3.841" class="g">-a</text><text x="30.06" y="3.841" class="k">de</text></svg><svg x="3528"><use xlink:href="#a"/><use xlink:href="#b" x="32.996" y="2.146"/><use xlink:href="#1"/><text y="3.841" class="i">➜</text><text x="2.004" y="3.841" class="j">excludarr</text><text x="12.024" y="3.841" class="k">radarr</text><text x="19.038" y="3.841" class="k">exclude</text><text x="27.054" y="3.841" class="g">-a</text><text x="30.06" y="3.841" class="k">del</text></svg><svg x="3626"><use xlink:href="#a"/><use xlink:href="#b" x="33.996" y="2.146"/><use xlink:href="#1"/><text y="3.841" class="i">➜</text><text x="2.004" y="3.841" class="j">excludarr</text><text x="12.024" y="3.841" class="k">radarr</text><text x="19.038" y="3.841" class="k">exclude</text><text x="27.054" y="3.841" class="g">-a</text><text x="30.06" y="3.841" class="k">dele</text></svg><svg x="3724"><use xlink:href="#a"/><use xlink:href="#b" x="34.996" y="2.146"/><use xlink:href="#1"/><text y="3.841" class="i">➜</text><text x="2.004" y="3.841" class="j">excludarr</text><text x="12.024" y="3.841" class="k">radarr</text><text x="19.038" y="3.841" class="k">exclude</text><text x="27.054" y="3.841" class="g">-a</text><text x="30.06" y="3.841" class="k">delet</text></svg><svg x="3822"><use xlink:href="#a"/><use xlink:href="#b" x="35.996" y="2.146"/><use xlink:href="#1"/><use xlink:href="#7" y="2.171"/></svg><svg x="3920"><use xlink:href="#a"/><use xlink:href="#b" x="36.996" y="2.146"/><use xlink:href="#1"/><use xlink:href="#7" y="2.171"/></svg><svg x="4018"><use xlink:href="#a"/><use xlink:href="#b" x="37.996" y="2.146"/><use xlink:href="#1"/><text y="3.841" class="i">➜</text><text x="2.004" y="3.841" class="j">excludarr</text><text x="12.024" y="3.841" class="k">radarr</text><text x="19.038" y="3.841" class="k">exclude</text><text x="27.054" y="3.841" class="g">-a</text><text x="30.06" y="3.841" class="k">delete</text><text x="37.074" y="3.841" class="g">-</text></svg><svg x="4116"><use xlink:href="#a"/><use xlink:href="#b" x="38.996" y="2.146"/><use xlink:href="#1"/><use xlink:href="#8" y="2.171"/></svg><svg x="4214"><use xlink:href="#a"/><use xlink:href="#b" x="39.996" y="2.146"/><use xlink:href="#1"/><use xlink:href="#8" y="2.171"/></svg><svg x="4312"><use xlink:href="#a"/><use xlink:href="#b" x="40.996" y="2.146"/><use xlink:href="#1"/><text y="3.841" class="i">➜</text><text x="2.004" y="3.841" class="j">excludarr</text><text x="12.024" y="3.841" class="k">radarr</text><text x="19.038" y="3.841" class="k">exclude</text><text x="27.054" y="3.841" class="g">-a</text><text x="30.06" y="3.841" class="k">delete</text><text x="37.074" y="3.841" class="g">-d</text><text x="40.08" y="3.841" class="g">-</text></svg><svg x="4410"><use xlink:href="#a"/><use xlink:href="#b" x="41.996" y="2.146"/><use xlink:href="#1"/><use xlink:href="#9" y="2.171"/></svg><svg x="4508"><use xlink:href="#a"/><use xlink:href="#b" x="42.996" y="2.146"/><use xlink:href="#1"/><use xlink:href="#9" y="2.171"/></svg><svg x="4606"><use xlink:href="#a"/><use xlink:href="#b" x="43.996" y="2.146"/><use xlink:href="#1"/><text y="3.841" class="i">➜</text><text x="2.004" y="3.841" class="j">excludarr</text><text x="12.024" y="3.841" class="k">radarr</text><text x="19.038" y="3.841" class="k">exclude</text><text x="27.054" y="3.841" class="g">-a</text><text x="30.06" y="3.841" class="k">delete</text><text x="37.074" y="3.841" class="g">-d</text><text x="40.08" y="3.841" class="g">-e</text><text x="43.086" y="3.841" class="g">-</text></svg><svg x="4704"><use xlink:href="#a"/><use xlink:href="#b" x="44.996" y="2.146"/><use xlink:href="#1"/><text y="3.841" class="i">➜</text><text x="2.004" y="3.841" class="j">excludarr</text><text x="12.024" y="3.841" class="k">radarr</text><text x="19.038" y="3.841" class="k">exclude</text><text x="27.054" y="3.841" class="g">-a</text><text x="30.06" y="3.841" class="k">delete</text><text x="37.074" y="3.841" class="g">-d</text><text x="40.08" y="3.841" class="g">-e</text><text x="43.086" y="3.841" class="g">--</text></svg><svg x="4802"><use xlink:href="#a"/><use xlink:href="#b" x="45.996" y="2.146"/><use xlink:href="#1"/><text y="3.841" class="i">➜</text><text x="2.004" y="3.841" class="j">excludarr</text><text x="12.024" y="3.841" class="k">radarr</text><text x="19.038" y="3.841" class="k">exclude</text><text x="27.054" y="3.841" class="g">-a</text><text x="30.06" y="3.841" class="k">delete</text><text x="37.074" y="3.841" class="g">-d</text><text x="40.08" y="3.841" class="g">-e</text><text x="43.086" y="3.841" class="g">--p</text></svg><svg x="4900"><use xlink:href="#a"/><use xlink:href="#b" x="46.996" y="2.146"/><use xlink:href="#1"/><text y="3.841" class="i">➜</text><text x="2.004" y="3.841" class="j">excludarr</text><text x="12.024" y="3.841" class="k">radarr</text><text x="19.038" y="3.841" class="k">exclude</text><text x="27.054" y="3.841" class="g">-a</text><text x="30.06" y="3.841" class="k">delete</text><text x="37.074" y="3.841" class="g">-d</text><text x="40.08" y="3.841" class="g">-e</text><text x="43.086" y="3.841" class="g">--pr</text></svg><svg x="4998"><use xlink:href="#a"/><use xlink:href="#b" x="47.996" y="2.146"/><use xlink:href="#1"/><text y="3.841" class="i">➜</text><text x="2.004" y="3.841" class="j">excludarr</text><text x="12.024" y="3.841" class="k">radarr</text><text x="19.038" y="3.841" class="k">exclude</text><text x="27.054" y="3.841" class="g">-a</text><text x="30.06" y="3.841" class="k">delete</text><text x="37.074" y="3.841" class="g">-d</text><text x="40.08" y="3.841" class="g">-e</text><text x="43.086" y="3.841" class="g">--pro</text></svg><svg x="5096"><use xlink:href="#a"/><use xlink:href="#b" x="48.996" y="2.146"/><use xlink:href="#1"/><text y="3.841" class="i">➜</text><text x="2.004" y="3.841" class="j">excludarr</text><text x="12.024" y="3.841" class="k">radarr</text><text x="19.038" y="3.841" class="k">exclude</text><text x="27.054" y="3.841" class="g">-a</text><text x="30.06" y="3.841" class="k">delete</text><text x="37.074" y="3.841" class="g">-d</text><text x="40.08" y="3.841" class="g">-e</text><text x="43.086" y="3.841" class="g">--prog</text></svg><svg x="5194"><use xlink:href="#a"/><use xlink:href="#b" x="49.996" y="2.146"/><use xlink:href="#1"/><text y="3.841" class="i">➜</text><text x="2.004" y="3.841" class="j">excludarr</text><text x="12.024" y="3.841" class="k">radarr</text><text x="19.038" y="3.841" class="k">exclude</text><text x="27.054" y="3.841" class="g">-a</text><text x="30.06" y="3.841" class="k">delete</text><text x="37.074" y="3.841" class="g">-d</text><text x="40.08" y="3.841" class="g">-e</text><text x="43.086" y="3.841" class="g">--progr</text></svg><svg x="5292"><use xlink:href="#a"/><use xlink:href="#b" x="50.996" y="2.146"/><use xlink:href="#1"/><text y="3.841" class="i">➜</text><text x="2.004" y="3.841" class="j">excludarr</text><text x="12.024" y="3.841" class="k">radarr</text><text x="19.038" y="3.841" class="k">exclude</text><text x="27.054" y="3.841" class="g">-a</text><text x="30.06" y="3.841" class="k">delete</text><text x="37.074" y="3.841" class="g">-d</text><text x="40.08" y="3.841" class="g">-e</text><text x="43.086" y="3.841" class="g">--progre</text></svg><svg x="5390"><use xlink:href="#a"/><use xlink:href="#b" x="51.996" y="2.146"/><use xlink:href="#1"/><text y="3.841" class="i">➜</text><text x="2.004" y="3.841" class="j">excludarr</text><text x="12.024" y="3.841" class="k">radarr</text><text x="19.038" y="3.841" class="k">exclude</text><text x="27.054" y="3.841" class="g">-a</text><text x="30.06" y="3.841" class="k">delete</text><text x="37.074" y="3.841" class="g">-d</text><text x="40.08" y="3.841" class="g">-e</text><text x="43.086" y="3.841" class="g">--progres</text></svg><svg x="5488"><use xlink:href="#a"/><use xlink:href="#b" x="52.996" y="2.146"/><use xlink:href="#1"/><use xlink:href="#10" y="2.171"/></svg><svg x="5586"><use xlink:href="#a"/><use xlink:href="#b" x="52.996" y="2.146"/><use xlink:href="#1"/><use xlink:href="#10" y="2.171"/></svg><svg x="5684"><use xlink:href="#a"/><use xlink:href="#b" x="-.004" y="4.317"/><use xlink:href="#1"/><use xlink:href="#10" y="2.171"/></svg><svg x="5782"><use xlink:href="#a"/><use xlink:href="#b" x="-.004" y="4.317"/><use xlink:href="#1"/><use xlink:href="#10" y="2.171"/></svg><svg x="5880"><use xlink:href="#a"/><use xlink:href="#1"/><use xlink:href="#10" y="2.171"/></svg><svg x="5978"><use xlink:href="#a"/><use xlink:href="#1"/><use xlink:href="#10" y="2.171"/><use xlink:href="#11" y="4.342"/></svg><svg x="6076"><use xlink:href="#a"/><use xlink:href="#1"/><use xlink:href="#10" y="2.171"/><use xlink:href="#11" y="4.342"/></svg><svg x="6174"><use xlink:href="#a"/><use xlink:href="#1"/><use xlink:href="#10" y="2.171"/><use xlink:href="#11" y="4.342"/></svg><svg x="6272"><use xlink:href="#a"/><use xlink:href="#1"/><use xlink:href="#10" y="2.171"/><use xlink:href="#11" y="4.342"/></svg><svg x="6370"><use xlink:href="#a"/><use xlink:href="#1"/><use xlink:href="#10" y="2.171"/><text y="6.012" class="k">Working...</text><text x="11.022" y="6.012" class="o">━╸</text><text x="13.026" y="6.012" class="l">━━━━━━━━━━━━━━━━━━━━━━━━━━━━━━━━━━━━━━</text><text x="54.108" y="6.012" class="m">4%</text><text x="57.114" y="6.012" class="n">-:--:--</text></svg><svg x="6468"><use xlink:href="#a"/><use xlink:href="#1"/><use xlink:href="#10" y="2.171"/><use xlink:href="#12" y="4.342"/></svg><svg x="6566"><use xlink:href="#a"/><use xlink:href="#1"/><use xlink:href="#10" y="2.171"/><use xlink:href="#12" y="4.342"/></svg><svg x="6664"><use xlink:href="#a"/><use xlink:href="#1"/><use xlink:href="#10" y="2.171"/><text y="6.012" class="k">Working...</text><text x="11.022" y="6.012" class="o">━━━━━━━━</text><text x="19.038" y="6.012" class="l">╺━━━━━━━━━━━━━━━━━━━━━━━━━━━━━━━</text><text x="53.106" y="6.012" class="m">20%</text><text x="57.114" y="6.012" class="n">0:00:02</text></svg><svg x="6762"><use xlink:href="#a"/><use xlink:href="#1"/><use xlink:href="#10" y="2.171"/><text y="6.012" class="k">Working...</text><text x="11.022" y="6.012" class="o">━━━━━━━━━╸</text><text x="21.042" y="6.012" class="l">━━━━━━━━━━━━━━━━━━━━━━━━━━━━━━</text><text x="53.106" y="6.012" class="m">24%</text><text x="57.114" y="6.012" class="n">0:00:02</text></svg><svg x="6860"><use xlink:href="#a"/><use xlink:href="#1"/><use xlink:href="#10" y="2.171"/><use xlink:href="#13" y="4.342"/></svg><svg x="6958"><use xlink:href="#a"/><use xlink:href="#1"/><use xlink:href="#10" y="2.171"/><use xlink:href="#13" y="4.342"/></svg><svg x="7056"><use xlink:href="#a"/><use xlink:href="#1"/><use xlink:href="#10" y="2.171"/><text y="6.012" class="k">Working...</text><text x="11.022" y="6.012" class="o">━━━━━━━━━━━━━━</text><text x="25.05" y="6.012" class="l">╺━━━━━━━━━━━━━━━━━━━━━━━━━</text><text x="53.106" y="6.012" class="m">36%</text><text x="57.114" y="6.012" class="n">0:00:02</text></svg><svg x="7154"><use xlink:href="#a"/><use xlink:href="#1"/><use xlink:href="#10" y="2.171"/><text y="6.012" class="k">Working...</text><text x="11.022" y="6.012" class="o">━━━━━━━━━━━━━━━━</text><text x="27.054" y="6.012" class="l">╺━━━━━━━━━━━━━━━━━━━━━━━</text><text x="53.106" y="6.012" class="m">40%</text><text x="57.114" y="6.012" class="n">0:00:02</text></svg><svg x="7252"><use xlink:href="#a"/><use xlink:href="#1"/><use xlink:href="#10" y="2.171"/><text y="6.012" class="k">Working...</text><text x="11.022" y="6.012" class="o">━━━━━━━━━━━━━━━━━╸</text><text x="29.058" y="6.012" class="l">━━━━━━━━━━━━━━━━━━━━━━</text><text x="53.106" y="6.012" class="m">44%</text><text x="57.114" y="6.012" class="n">0:00:02</text></svg><svg x="7350"><use xlink:href="#a"/><use xlink:href="#1"/><use xlink:href="#10" y="2.171"/><text y="6.012" class="k">Working...</text><text x="11.022" y="6.012" class="o">━━━━━━━━━━━━━━━━━━━</text><text x="30.06" y="6.012" class="l">╺━━━━━━━━━━━━━━━━━━━━</text><text x="53.106" y="6.012" class="m">48%</text><text x="57.114" y="6.012" class="n">0:00:02</text></svg><svg x="7448"><use xlink:href="#a"/><use xlink:href="#1"/><use xlink:href="#10" y="2.171"/><use xlink:href="#14" y="4.342"/></svg><svg x="7546"><use xlink:href="#a"/><use xlink:href="#1"/><use xlink:href="#10" y="2.171"/><use xlink:href="#14" y="4.342"/></svg><svg x="7644"><use xlink:href="#a"/><use xlink:href="#1"/><use xlink:href="#10" y="2.171"/><text y="6.012" class="k">Working...</text><text x="11.022" y="6.012" class="o">━━━━━━━━━━━━━━━━━━━━━━━━━╸</text><text x="37.074" y="6.012" class="l">━━━━━━━━━━━━━━</text><text x="53.106" y="6.012" class="m">64%</text><text x="57.114" y="6.012" class="n">0:00:01</text></svg><svg x="7742"><use xlink:href="#a"/><use xlink:href="#1"/><use xlink:href="#10" y="2.171"/><use xlink:href="#15" y="4.342"/></svg><svg x="7840"><use xlink:href="#a"/><use xlink:href="#1"/><use xlink:href="#10" y="2.171"/><use xlink:href="#15" y="4.342"/></svg><svg x="7938"><use xlink:href="#a"/><use xlink:href="#1"/><use xlink:href="#10" y="2.171"/><use xlink:href="#15" y="4.342"/></svg><svg x="8036"><use xlink:href="#a"/><use xlink:href="#1"/><use xlink:href="#10" y="2.171"/><text y="6.012" class="k">Working...</text><text x="11.022" y="6.012" class="o">━━━━━━━━━━━━━━━━━━━━━━━━━━━━╸</text><text x="40.08" y="6.012" class="l">━━━━━━━━━━━</text><text x="53.106" y="6.012" class="m">72%</text><text x="57.114" y="6.012" class="n">0:00:01</text></svg><svg x="8134"><use xlink:href="#a"/><use xlink:href="#1"/><use xlink:href="#10" y="2.171"/><use xlink:href="#16" y="4.342"/></svg><svg x="8232"><use xlink:href="#a"/><use xlink:href="#1"/><use xlink:href="#10" y="2.171"/><use xlink:href="#16" y="4.342"/></svg><svg x="8330"><use xlink:href="#a"/><use xlink:href="#1"/><use xlink:href="#10" y="2.171"/><use xlink:href="#16" y="4.342"/></svg><svg x="8428"><use xlink:href="#a"/><use xlink:href="#1"/><use xlink:href="#10" y="2.171"/><use xlink:href="#16" y="4.342"/></svg><svg x="8526"><use xlink:href="#a"/><use xlink:href="#1"/><use xlink:href="#10" y="2.171"/><text y="6.012" class="k">Working...</text><text x="11.022" y="6.012" class="o">━━━━━━━━━━━━━━━━━━━━━━━━━━━━━━━━</text><text x="43.086" y="6.012" class="l">╺━━━━━━━</text><text x="53.106" y="6.012" class="m">80%</text><text x="57.114" y="6.012" class="n">0:00:01</text></svg><svg x="8624"><use xlink:href="#a"/><use xlink:href="#1"/><use xlink:href="#10" y="2.171"/><use xlink:href="#17" y="4.342"/></svg><svg x="8722"><use xlink:href="#a"/><use xlink:href="#1"/><use xlink:href="#10" y="2.171"/><use xlink:href="#17" y="4.342"/></svg><svg x="8820"><use xlink:href="#a"/><use xlink:href="#1"/><use xlink:href="#10" y="2.171"/><text y="6.012" class="k">Working...</text><text x="11.022" y="6.012" class="o">━━━━━━━━━━━━━━━━━━━━━━━━━━━━━━━━━━━━╸</text><text x="48.096" y="6.012" class="l">━━━</text><text x="53.106" y="6.012" class="m">92%</text><text x="57.114" y="6.012" class="n">0:00:01</text></svg><svg x="8918"><use xlink:href="#a"/><use xlink:href="#1"/><use xlink:href="#10" y="2.171"/><use xlink:href="#18" y="4.342"/></svg><svg x="9016"><use xlink:href="#a"/><use xlink:href="#b" x="-.004" y="6.488"/><use xlink:href="#1"/><use xlink:href="#10" y="2.171"/><use xlink:href="#18" y="4.342"/></svg><svg x="9114"><use xlink:href="#a"/><use xlink:href="#1"/><use xlink:href="#10" y="2.171"/><use xlink:href="#18" y="4.342"/></svg><svg x="9212"><use xlink:href="#a"/><use xlink:href="#1"/><use xlink:href="#10" y="2.171"/><use xlink:href="#18" y="4.342"/><use xlink:href="#19" y="6.513"/><use xlink:href="#20" y="8.684"/><use xlink:href="#21" y="10.855"/><use xlink:href="#22" y="13.026"/><use xlink:href="#23" y="15.197"/><use xlink:href="#24" y="17.368"/><text x="1.002" y="21.209" class="k">2021-11-24</text><text x="14.028" y="21.209" class="k">│</text><text x="16.032" y="21.209" class="k">The</text><text x="20.04" y="21.209" class="k">Unforgi</text></svg><svg x="9310"><use xlink:href="#a"/><use xlink:href="#1"/><use xlink:href="#10" y="2.171"/><use xlink:href="#18" y="4.342"/><use xlink:href="#19" y="6.513"/><use xlink:href="#20" y="8.684"/><use xlink:href="#21" y="10.855"/><use xlink:href="#22" y="13.026"/><use xlink:href="#23" y="15.197"/><use xlink:href="#24" y="17.368"/><use xlink:href="#25" y="19.539"/><use xlink:href="#26" y="21.71"/><use xlink:href="#27" y="23.881"/><use xlink:href="#28" y="26.052"/><use xlink:href="#29" y="28.223"/><use xlink:href="#30" y="30.394"/><use xlink:href="#31" y="32.565"/><text y="36.406" class="k">╶────────────</text></svg><svg x="9408"><use xlink:href="#a"/><use xlink:href="#b" x="-.004" y="41.224"/><use xlink:href="#1"/><use xlink:href="#10" y="2.171"/><use xlink:href="#18" y="4.342"/><use xlink:href="#19" y="6.513"/><use xlink:href="#20" y="8.684"/><use xlink:href="#21" y="10.855"/><use xlink:href="#22" y="13.026"/><use xlink:href="#23" y="15.197"/><use xlink:href="#24" y="17.368"/><use xlink:href="#25" y="19.539"/><use xlink:href="#26" y="21.71"/><use xlink:href="#27" y="23.881"/><use xlink:href="#28" y="26.052"/><use xlink:href="#29" y="28.223"/><use xlink:href="#30" y="30.394"/><use xlink:href="#31" y="32.565"/><use xlink:href="#21" y="34.736"/><use xlink:href="#32" y="36.907"/><use xlink:href="#33" y="39.078"/></svg><svg x="9506"><use xlink:href="#a"/><use xlink:href="#b" x="61.996" y="41.224"/><use xlink:href="#1"/><use xlink:href="#10" y="2.171"/><use xlink:href="#18" y="4.342"/><use xlink:href="#19" y="6.513"/><use xlink:href="#20" y="8.684"/><use xlink:href="#21" y="10.855"/><use xlink:href="#22" y="13.026"/><use xlink:href="#23" y="15.197"/><use xlink:href="#24" y="17.368"/><use xlink:href="#25" y="19.539"/><use xlink:href="#26" y="21.71"/><use xlink:href="#27" y="23.881"/><use xlink:href="#28" y="26.052"/><use xlink:href="#29" y="28.223"/><use xlink:href="#30" y="30.394"/><use xlink:href="#31" y="32.565"/><use xlink:href="#21" y="34.736"/><use xlink:href="#32" y="36.907"/><use xlink:href="#33" y="39.078"/><text y="42.919" class="k">Are</text><text x="4.008" y="42.919" class="k">you</text><text x="8.016" y="42.919" class="k">sure</text><text x="13.026" y="42.919" class="k">you</text><text x="17.034" y="42.919" class="k">want</text><text x="22.044" y="42.919" class="k">to</text><text x="25.05" y="42.919" class="k">delete</text><text x="32.064" y="42.919" class="k">the</text><text x="36.072" y="42.919" class="k">listed</text><text x="43.086" y="42.919" class="k">movies?</text><text x="51.102" y="42.919" class="q">[y/n]</text><text x="57.114" y="42.919" class="h">(n)</text><text x="60.12" y="42.919" class="k">:</text></svg><svg x="9604"><use xlink:href="#a"/><use xlink:href="#b" x="62.996" y="41.224"/><use xlink:href="#1"/><use xlink:href="#10" y="2.171"/><use xlink:href="#18" y="4.342"/><use xlink:href="#19" y="6.513"/><use xlink:href="#20" y="8.684"/><use xlink:href="#21" y="10.855"/><use xlink:href="#22" y="13.026"/><use xlink:href="#23" y="15.197"/><use xlink:href="#24" y="17.368"/><use xlink:href="#25" y="19.539"/><use xlink:href="#26" y="21.71"/><use xlink:href="#27" y="23.881"/><use xlink:href="#28" y="26.052"/><use xlink:href="#29" y="28.223"/><use xlink:href="#30" y="30.394"/><use xlink:href="#31" y="32.565"/><use xlink:href="#21" y="34.736"/><use xlink:href="#32" y="36.907"/><use xlink:href="#33" y="39.078"/><use xlink:href="#34" y="41.249"/></svg><svg x="9702"><use xlink:href="#a"/><use xlink:href="#b" x="-.004" y="43.395"/><use xlink:href="#1"/><use xlink:href="#10" y="2.171"/><use xlink:href="#18" y="4.342"/><use xlink:href="#19" y="6.513"/><use xlink:href="#20" y="8.684"/><use xlink:href="#21" y="10.855"/><use xlink:href="#22" y="13.026"/><use xlink:href="#23" y="15.197"/><use xlink:href="#24" y="17.368"/><use xlink:href="#25" y="19.539"/><use xlink:href="#26" y="21.71"/><use xlink:href="#27" y="23.881"/><use xlink:href="#28" y="26.052"/><use xlink:href="#29" y="28.223"/><use xlink:href="#30" y="30.394"/><use xlink:href="#31" y="32.565"/><use xlink:href="#21" y="34.736"/><use xlink:href="#32" y="36.907"/><use xlink:href="#33" y="39.078"/><use xlink:href="#34" y="41.249"/></svg><svg x="9800"><use xlink:href="#a"/><use xlink:href="#b" x="-.004" y="45.566"/><use xlink:href="#1"/><use xlink:href="#10" y="2.171"/><use xlink:href="#18" y="4.342"/><use xlink:href="#19" y="6.513"/><use xlink:href="#20" y="8.684"/><use xlink:href="#21" y="10.855"/><use xlink:href="#22" y="13.026"/><use xlink:href="#23" y="15.197"/><use xlink:href="#24" y="17.368"/><use xlink:href="#25" y="19.539"/><use xlink:href="#26" y="21.71"/><use xlink:href="#27" y="23.881"/><use xlink:href="#28" y="26.052"/><use xlink:href="#29" y="28.223"/><use xlink:href="#30" y="30.394"/><use xlink:href="#31" y="32.565"/><use xlink:href="#21" y="34.736"/><use xlink:href="#32" y="36.907"/><use xlink:href="#33" y="39.078"/><use xlink:href="#34" y="41.249"/><use xlink:href="#35" y="43.42"/></svg><svg x="9898"><use xlink:href="#a"/><use xlink:href="#b" x="-.004" y="45.566"/><use xlink:href="#1"/><use xlink:href="#10" y="2.171"/><use xlink:href="#18" y="4.342"/><use xlink:href="#19" y="6.513"/><use xlink:href="#20" y="8.684"/><use xlink:href="#21" y="10.855"/><use xlink:href="#22" y="13.026"/><use xlink:href="#23" y="15.197"/><use xlink:href="#24" y="17.368"/><use xlink:href="#25" y="19.539"/><use xlink:href="#26" y="21.71"/><use xlink:href="#27" y="23.881"/><use xlink:href="#28" y="26.052"/><use xlink:href="#29" y="28.223"/><use xlink:href="#30" y="30.394"/><use xlink:href="#31" y="32.565"/><use xlink:href="#21" y="34.736"/><use xlink:href="#32" y="36.907"/><use xlink:href="#33" y="39.078"/><use xlink:href="#34" y="41.249"/><use xlink:href="#35" y="43.42"/></svg><svg x="9996"><use xlink:href="#a"/><use xlink:href="#b" x="-.004" y="45.566"/><use xlink:href="#1"/><use xlink:href="#10" y="2.171"/><use xlink:href="#18" y="4.342"/><use xlink:href="#19" y="6.513"/><use xlink:href="#20" y="8.684"/><use xlink:href="#21" y="10.855"/><use xlink:href="#22" y="13.026"/><use xlink:href="#23" y="15.197"/><use xlink:href="#24" y="17.368"/><use xlink:href="#25" y="19.539"/><use xlink:href="#26" y="21.71"/><use xlink:href="#27" y="23.881"/><use xlink:href="#28" y="26.052"/><use xlink:href="#29" y="28.223"/><use xlink:href="#30" y="30.394"/><use xlink:href="#31" y="32.565"/><use xlink:href="#21" y="34.736"/><use xlink:href="#32" y="36.907"/><use xlink:href="#33" y="39.078"/><use xlink:href="#34" y="41.249"/><use xlink:href="#35" y="43.42"/></svg><svg x="10094"><use xlink:href="#a"/><use xlink:href="#b" x="1.996" y="47.737"/><use xlink:href="#1"/><use xlink:href="#10" y="2.171"/><use xlink:href="#18" y="4.342"/><use xlink:href="#19" y="6.513"/><use xlink:href="#20" y="8.684"/><use xlink:href="#21" y="10.855"/><use xlink:href="#22" y="13.026"/><use xlink:href="#23" y="15.197"/><use xlink:href="#24" y="17.368"/><use xlink:href="#25" y="19.539"/><use xlink:href="#26" y="21.71"/><use xlink:href="#27" y="23.881"/><use xlink:href="#28" y="26.052"/><use xlink:href="#29" y="28.223"/><use xlink:href="#30" y="30.394"/><use xlink:href="#31" y="32.565"/><use xlink:href="#21" y="34.736"/><use xlink:href="#32" y="36.907"/><use xlink:href="#33" y="39.078"/><use xlink:href="#34" y="41.249"/><use xlink:href="#35" y="43.42"/><use xlink:href="#36" y="45.591"/><use xlink:href="#2" y="47.762"/></svg><svg x="10192"><use xlink:href="#a"/><use xlink:href="#b" x="1.996" y="47.737"/><use xlink:href="#1"/><use xlink:href="#10" y="2.171"/><use xlink:href="#18" y="4.342"/><use xlink:href="#19" y="6.513"/><use xlink:href="#20" y="8.684"/><use xlink:href="#21" y="10.855"/><use xlink:href="#22" y="13.026"/><use xlink:href="#23" y="15.197"/><use xlink:href="#24" y="17.368"/><use xlink:href="#25" y="19.539"/><use xlink:href="#26" y="21.71"/><use xlink:href="#27" y="23.881"/><use xlink:href="#28" y="26.052"/><use xlink:href="#29" y="28.223"/><use xlink:href="#30" y="30.394"/><use xlink:href="#31" y="32.565"/><use xlink:href="#21" y="34.736"/><use xlink:href="#32" y="36.907"/><use xlink:href="#33" y="39.078"/><use xlink:href="#34" y="41.249"/><use xlink:href="#35" y="43.42"/><use xlink:href="#36" y="45.591"/><use xlink:href="#2" y="47.762"/></svg><svg x="10290"><use xlink:href="#a"/><use xlink:href="#b" x="1.996" y="47.737"/><use xlink:href="#1"/><use xlink:href="#10" y="2.171"/><use xlink:href="#18" y="4.342"/><use xlink:href="#19" y="6.513"/><use xlink:href="#20" y="8.684"/><use xlink:href="#21" y="10.855"/><use xlink:href="#22" y="13.026"/><use xlink:href="#23" y="15.197"/><use xlink:href="#24" y="17.368"/><use xlink:href="#25" y="19.539"/><use xlink:href="#26" y="21.71"/><use xlink:href="#27" y="23.881"/><use xlink:href="#28" y="26.052"/><use xlink:href="#29" y="28.223"/><use xlink:href="#30" y="30.394"/><use xlink:href="#31" y="32.565"/><use xlink:href="#21" y="34.736"/><use xlink:href="#32" y="36.907"/><use xlink:href="#33" y="39.078"/><use xlink:href="#34" y="41.249"/><use xlink:href="#35" y="43.42"/><use xlink:href="#36" y="45.591"/><use xlink:href="#2" y="47.762"/></svg><svg x="10388"><use xlink:href="#a"/><use xlink:href="#b" x="-.004" y="49.908"/><use xlink:href="#1"/><use xlink:href="#10" y="2.171"/><use xlink:href="#18" y="4.342"/><use xlink:href="#19" y="6.513"/><use xlink:href="#20" y="8.684"/><use xlink:href="#21" y="10.855"/><use xlink:href="#22" y="13.026"/><use xlink:href="#23" y="15.197"/><use xlink:href="#24" y="17.368"/><use xlink:href="#25" y="19.539"/><use xlink:href="#26" y="21.71"/><use xlink:href="#27" y="23.881"/><use xlink:href="#28" y="26.052"/><use xlink:href="#29" y="28.223"/><use xlink:href="#30" y="30.394"/><use xlink:href="#31" y="32.565"/><use xlink:href="#21" y="34.736"/><use xlink:href="#32" y="36.907"/><use xlink:href="#33" y="39.078"/><use xlink:href="#34" y="41.249"/><use xlink:href="#35" y="43.42"/><use xlink:href="#36" y="45.591"/><use xlink:href="#2" y="47.762"/></svg></svg></g></g></svg></svg>
